#!OML:ASF H:\charlestonDancing\Project 1\Capture day 1\Session 1\femaleDancer.ASF
:FULLY-SPECIFIED
:DEGREES
88
root -18.224 18.1952 0.39493 334.575 -98.3092 -327.068
lowerback 13.3833 4.42876 4.02879
upperback 1.6249 6.23609 -1.99187
thorax -5.09311 2.93879 -5.42533
lowerneck 1.61495 1.28083 4.29493
upperneck 12.7795 1.32865 0.204427
head 3.91656 0.74923 -0.650076
rclavicle 7.17613e-014 -1.98785e-014
rhumerus -35.3145 -7.68971 -72.5292
rradius 40.8509
rwrist 43.1062
rhand -38.9736 -48.8806
rfingers 7.12502
rthumb -11.9782 281.482
lclavicle 7.17613e-014 -1.98785e-014
lhumerus -53.6004 24.9548 36.8432
lradius 26.7972
lwrist -7.11944
lhand -38.5126 15.1145
lfingers 7.12502
lthumb -11.5336 44.7771
rfemur -20.274 17.7654 18.1321
rtibia 55.9283
rfoot 15.6082 34.8474
rtoes -29.2269
lfemur -29.5881 -6.15717 -21.5912
ltibia 43.4187
lfoot -5.87267 6.31405
ltoes -23.6996
89
root -18.316 18.0771 0.394329 328.654 -98.9695 -321.329
lowerback 12.8541 4.36251 5.11601
upperback 1.41692 6.3215 -1.68183
thorax -4.92997 2.97203 -5.67504
lowerneck 1.93432 1.30037 4.2736
upperneck 13.3034 1.30095 0.493896
head 4.04022 0.740968 -0.552165
rclavicle -4.09496e-014 9.93923e-015
rhumerus -35.5582 -8.20374 -72.2166
rradius 39.7587
rwrist 43.4465
rhand -38.8781 -49.0837
rfingers 7.12502
rthumb -11.8861 281.274
lclavicle -4.09496e-014 9.93923e-015
lhumerus -53.951 25.4368 36.9822
lradius 27.9758
lwrist -5.27789
lhand -39.6388 15.9115
lfingers 7.12502
lthumb -12.6196 45.5103
rfemur -21.9744 21.4864 16.9432
rtibia 59.4751
rfoot 8.96208 30.343
rtoes -29.5492
lfemur -28.7085 -6.38937 -20.2114
ltibia 43.2926
lfoot -7.14441 4.41708
ltoes -25.9227
90
root -18.4113 17.9793 0.399439 332.416 -98.3998 -325.844
lowerback 12.7669 4.26349 4.18473
upperback 1.37064 6.04684 -1.87615
thorax -5.04193 2.84829 -5.31733
lowerneck 2.22152 1.35247 4.31038
upperneck 13.7301 1.30729 0.854689
head 4.13715 0.75453 -0.438959
rclavicle -7.83212e-014 2.14687e-014
rhumerus -35.6826 -8.69658 -72.0342
rradius 38.5203
rwrist 43.5674
rhand -38.6219 -49.2239
rfingers 7.12502
rthumb -11.639 281.119
lclavicle -7.83212e-014 2.14687e-014
lhumerus -54.3929 25.6246 37.3914
lradius 29.4182
lwrist -3.28119
lhand -40.3248 16.7034
lfingers 7.12502
lthumb -13.2809 46.2603
rfemur -23.1972 23.566 13.8598
rtibia 62.9549
rfoot 3.39139 23.2693
rtoes -28.5307
lfemur -27.0624 -6.4602 -20.9693
ltibia 42.6439
lfoot -8.36787 1.62242
ltoes -24.8331
91
root -18.4996 17.8707 0.409767 331.051 -97.6554 -325.251
lowerback 12.8531 3.89592 3.89197
upperback 1.32537 5.52085 -1.92085
thorax -5.22194 2.58725 -5.13464
lowerneck 2.24533 1.43848 4.51324
upperneck 14.3317 1.35248 1.05542
head 4.3553 0.792969 -0.404986
rclavicle 3.26007e-014 7.95139e-015
rhumerus -35.6849 -9.38936 -71.8685
rradius 37.0695
rwrist 43.9432
rhand -38.4487 -49.0967
rfingers 7.12502
rthumb -11.472 281.237
lclavicle 3.26007e-014 7.95139e-015
lhumerus -54.6277 25.6235 38.1169
lradius 30.6763
lwrist -1.75268
lhand -40.0323 17.0838
lfingers 7.12502
lthumb -12.9989 46.6588
rfemur -23.9884 23.9228 11.8488
rtibia 65.7911
rfoot -1.9837 14.3386
rtoes -33.7283
lfemur -25.5927 -6.20561 -21.2439
ltibia 42.1661
lfoot -9.65772 -1.80397
ltoes -22.9269
92
root -18.5736 17.7525 0.425361 328.113 -96.3725 -323.44
lowerback 13.5171 3.39362 3.55255
upperback 1.39185 4.81279 -1.99864
thorax -5.61857 2.22833 -4.96895
lowerneck 1.97171 1.50739 4.66218
upperneck 15.0238 1.35958 1.24082
head 4.66671 0.815128 -0.365159
rclavicle -4.21423e-014 3.18055e-015
rhumerus -35.783 -10.4645 -71.514
rradius 35.5844
rwrist 44.8753
rhand -38.0579 -48.5851
rfingers 7.12502
rthumb -11.0951 281.728
lclavicle -4.21423e-014 3.18055e-015
lhumerus -54.2513 25.5496 39.276
lradius 31.3567
lwrist -1.05317
lhand -39.0302 16.7074
lfingers 7.12502
lthumb -12.0328 46.3414
rfemur -24.4063 22.5232 10.2773
rtibia 68.0813
rfoot -3.94493 4.51333
rtoes -35.8637
lfemur -23.7052 -4.85168 -22.6641
ltibia 41.5307
lfoot -11.5874 -2.49556
ltoes -26.8467
93
root -18.6214 17.6413 0.445246 316.524 -95.246 -313.269
lowerback 14.8072 2.76223 3.8578
upperback 1.52798 4.05859 -1.85866
thorax -6.25529 1.82562 -4.95201
lowerneck 1.73928 1.53471 4.79646
upperneck 15.6011 1.34135 1.25031
head 4.93219 0.817394 -0.38335
rclavicle -6.38099e-014 -2.38542e-015
rhumerus -36.0662 -11.6295 -70.9424
rradius 34.2569
rwrist 46.1718
rhand -37.4744 -47.7538
rfingers 7.12502
rthumb -10.5323 282.53
lclavicle -6.38099e-014 -2.38542e-015
lhumerus -53.336 25.4336 40.9486
lradius 31.498
lwrist -0.961004
lhand -38.1427 16.5736
lfingers 7.12502
lthumb -11.1769 46.2559
rfemur -24.493 20.484 9.6278
rtibia 69.8182
rfoot -3.94635 -5.24115
rtoes -27.2548
lfemur -21.9011 -4.51612 -23.407
ltibia 41.4618
lfoot -13.2389 -2.72462
ltoes -17.1571
94
root -18.6453 17.5453 0.446085 327.245 -92.3024 -324.991
lowerback 15.7733 2.39004 1.25548
upperback 1.62226 3.09424 -2.2591
thorax -6.91019 1.39197 -3.77528
lowerneck 1.78969 1.50575 4.81986
upperneck 15.8854 1.29095 1.18872
head 5.0302 0.790715 -0.410096
rclavicle -2.04748e-014 1.59028e-014
rhumerus -36.5111 -12.749 -70.2068
rradius 33.3236
rwrist 47.2554
rhand -36.9334 -46.8638
rfingers 7.12502
rthumb -10.0104 283.394
lclavicle -2.04748e-014 1.59028e-014
lhumerus -52.1362 25.3133 43.2177
lradius 31.4438
lwrist -1.40032
lhand -37.0917 16.9896
lfingers 7.12502
lthumb -10.1631 46.7241
rfemur -25.3006 16.8605 6.34223
rtibia 71.0681
rfoot -4.15546 -12.6483
rtoes -13.8727
lfemur -20.7545 -6.95052 -26.7367
ltibia 41.7382
lfoot -14.1715 -0.110976
ltoes -22.3892
95
root -18.6577 17.4743 0.436924 270.407 -90.7087 -267.55
lowerback 15.0584 1.90257 0.59663
upperback 1.55705 2.35942 -2.14928
thorax -6.66857 1.0631 -3.10006
lowerneck 1.8398 1.40317 4.51594
upperneck 15.734 1.15631 1.3351
head 4.95316 0.714085 -0.311964
rclavicle -1.11319e-014 -1.03368e-014
rhumerus -36.7013 -13.8883 -69.5382
rradius 32.7968
rwrist 47.4565
rhand -36.5456 -46.3509
rfingers 7.12502
rthumb -9.63628 283.889
lclavicle -1.11319e-014 -1.03368e-014
lhumerus -50.3456 25.3665 46.329
lradius 31.43
lwrist -2.33674
lhand -35.8232 16.7409
lfingers 7.12502
lthumb -8.93917 46.5315
rfemur -27.7826 12.5556 5.50201
rtibia 71.613
rfoot -4.17337 -17.7308
rtoes -4.10846
lfemur -21.7731 -8.81158 -27.5429
ltibia 42.4974
lfoot -14.2079 0.774632
ltoes -23.882
96
root -18.6558 17.427 0.417801 215.517 -91.9003 -212.804
lowerback 15.2321 1.53669 0.852966
upperback 1.76859 1.94702 -1.75394
thorax -6.56602 0.862806 -2.74153
lowerneck 1.60153 1.23812 4.38856
upperneck 15.8978 0.957946 1.08377
head 5.05875 0.603634 -0.381848
rclavicle -1.95803e-014 3.18055e-015
rhumerus -36.7163 -14.9152 -69.0862
rradius 32.5258
rwrist 46.842
rhand -36.2881 -46.5651
rfingers 7.12502
rthumb -9.3878 283.664
lclavicle -1.95803e-014 3.18055e-015
lhumerus -48.0777 24.9905 50.3035
lradius 31.7778
lwrist -2.98919
lhand -34.9234 16.0284
lfingers 7.12502
lthumb -8.07089 45.8543
rfemur -29.3587 8.7738 6.81076
rtibia 71.2782
rfoot -3.78428 -20.4714
rtoes -8.09905
lfemur -22.1786 -9.79904 -27.2813
ltibia 43.4187
lfoot -13.9553 0.917038
ltoes -24.2722
97
root -18.6514 17.4349 0.386583 224.303 -93.1094 -222.23
lowerback 15.8473 1.37836 1.4356
upperback 2.1461 1.87207 -1.12798
thorax -6.50678 0.817071 -2.40197
lowerneck 1.78512 1.18232 4.04133
upperneck 15.6823 0.894323 1.23555
head 4.93279 0.558016 -0.271919
rclavicle -3.67752e-014 -6.36111e-015
rhumerus -36.2909 -15.5752 -69.0936
rradius 32.2196
rwrist 45.8248
rhand -36.1632 -47.2023
rfingers 7.12502
rthumb -9.26725 283.021
lclavicle -3.67752e-014 -6.36111e-015
lhumerus -45.8089 23.7185 54.9506
lradius 32.7876
lwrist -2.72655
lhand -34.4608 15.7668
lfingers 7.12502
lthumb -7.62439 45.6094
rfemur -30.9879 5.36437 9.72002
rtibia 70.1835
rfoot -4.25784 -21.1972
rtoes -11.2224
lfemur -22.0129 -9.32582 -26.2213
ltibia 44.28
lfoot -13.6717 0.507656
ltoes -23.0466
98
root -18.6529 17.4439 0.353056 234.726 -94.0646 -233.218
lowerback 16.2264 1.31799 2.08228
upperback 2.5432 1.92745 -0.592063
thorax -6.2836 0.834115 -2.21274
lowerneck 2.06952 1.16458 4.02958
upperneck 15.5298 0.889229 1.22073
head 4.81863 0.550083 -0.276517
rclavicle -1.67973e-014 -1.15295e-014
rhumerus -35.4665 -15.8587 -69.6916
rradius 31.6984
rwrist 44.5353
rhand -36.2062 -47.5974
rfingers 7.12502
rthumb -9.30875 282.628
lclavicle -1.67973e-014 -1.15295e-014
lhumerus -43.6581 21.3389 59.9033
lradius 34.3905
lwrist -1.66677
lhand -34.303 15.8589
lfingers 7.12502
lthumb -7.472 45.7069
rfemur -32.4019 2.17709 13.2241
rtibia 68.2551
rfoot -6.88847 -20.4986
rtoes -6.81707
lfemur -21.7608 -6.89079 -25.497
ltibia 44.8447
lfoot -13.0846 1.1591
ltoes -20.5678
99
root -18.6627 17.517 0.334454 242.272 -94.5738 -241.183
lowerback 16.4774 1.31375 2.41684
upperback 2.85975 1.98244 -0.335839
thorax -6.07642 0.85554 -2.1421
lowerneck 2.17329 1.1918 4.61918
upperneck 15.8267 0.950643 0.764078
head 4.92367 0.59047 -0.534627
rclavicle -4.77083e-015 -1.03368e-014
rhumerus -34.5324 -15.797 -70.8098
rradius 31.175
rwrist 43.3699
rhand -36.0853 -47.5226
rfingers 7.12502
rthumb -9.19215 282.698
lclavicle -4.77083e-015 -1.03368e-014
lhumerus -41.8322 18.2581 64.5443
lradius 36.4902
lwrist -0.347307
lhand -34.0927 16.3038
lfingers 7.12502
lthumb -7.26907 46.159
rfemur -33.8168 -1.43422 17.0997
rtibia 65.6364
rfoot -7.50408 -20.5293
rtoes -8.93662
lfemur -21.2336 -3.83421 -25.3684
ltibia 44.7592
lfoot -12.4896 2.56292
ltoes -20.6392
100
root -18.6722 17.5916 0.319369 248.979 -94.8822 -248.113
lowerback 16.6104 1.29808 2.59407
upperback 3.06662 1.98694 -0.246383
thorax -5.92405 0.854739 -2.14789
lowerneck 2.35746 1.31022 4.88655
upperneck 16.0221 1.07608 0.862078
head 4.96841 0.666856 -0.544444
rclavicle 3.8763e-014 -2.46493e-014
rhumerus -33.5241 -15.3927 -72.2522
rradius 30.7393
rwrist 42.5154
rhand -35.9537 -47.3061
rfingers 7.12502
rthumb -9.06513 282.909
lclavicle 3.8763e-014 -2.46493e-014
lhumerus -40.437 15.0591 68.6302
lradius 38.9304
lwrist 0.663084
lhand -34.0805 16.2693
lfingers 7.12502
lthumb -7.25726 46.1249
rfemur -35.1571 -5.02706 21.1287
rtibia 62.521
rfoot -9.57485 -19.9483
rtoes -4.80924
lfemur -20.7727 -0.694148 -25.4969
ltibia 44.3006
lfoot -11.559 4.61404
ltoes -21.013
101
root -18.6777 17.6919 0.309431 255.178 -95.0797 -254.288
lowerback 16.5699 1.26005 2.66468
upperback 3.19131 1.93866 -0.256254
thorax -5.76848 0.83131 -2.18433
lowerneck 2.26498 1.49917 4.95396
upperneck 16.7412 1.26208 1.08876
head 4.69543 0.775739 -0.458609
rclavicle -2.78299e-014 -1.51076e-014
rhumerus -32.3698 -14.6093 -73.9091
rradius 30.2793
rwrist 41.9635
rhand -36.1004 -47.2228
rfingers 7.12502
rthumb -9.20669 282.998
lclavicle -2.78299e-014 -1.51076e-014
lhumerus -39.3631 11.9357 72.247
lradius 41.6051
lwrist 1.25596
lhand -34.4454 15.2891
lfingers 7.12502
lthumb -7.60948 45.1322
rfemur -36.4738 -8.19983 25.3128
rtibia 59.0226
rfoot -10.2481 -18.8532
rtoes -2.14548
lfemur -20.465 2.03332 -25.6707
ltibia 43.4359
lfoot -10.9204 7.02192
ltoes -20.6855
102
root -18.6819 17.7861 0.297553 259.854 -94.8508 -258.774
lowerback 16.3766 1.2718 2.22699
upperback 3.04743 1.87724 -0.361126
thorax -5.8322 0.809168 -2.03229
lowerneck 3.47045 1.64759 5.09438
upperneck 15.9923 1.51243 1.15379
head 4.75075 0.883759 -0.472039
rclavicle 1.03368e-014 7.95139e-015
rhumerus -31.8437 -13.6442 -75.3627
rradius 29.998
rwrist 41.9625
rhand -36.1133 -47.2364
rfingers 7.12502
rthumb -9.21913 282.985
lclavicle 1.03368e-014 7.95139e-015
lhumerus -39.1108 8.88932 75.4702
lradius 44.5373
lwrist 1.17038
lhand -34.8363 14.2977
lfingers 7.12502
lthumb -7.98678 44.1268
rfemur -37.8921 -11.3107 29.2297
rtibia 55.5307
rfoot -10.1204 -17.0789
rtoes 4.15705
lfemur -20.3555 4.36494 -26.2235
ltibia 42.445
lfoot -12.0865 8.23149
ltoes -15.0394
